<svg xmlns="http://www.w3.org/2000/svg" viewBox="0 0 1024 1024" width="1024" height="1024">
  <circle cx="512" cy="512" r="486" fill="none" stroke="#3A424D" stroke-width="1.5" stroke-dasharray="4 10"/>
  <circle cx="512" cy="512" r="366" fill="none" stroke="#3A424D" stroke-width="1.5" stroke-dasharray="4 10"/>
  <circle cx="512" cy="512" r="300" fill="none" stroke="#3A424D" stroke-width="1" stroke-dasharray="2 12" opacity="0.7"/>
  <line x1="512.0" y1="146.0" x2="512.0" y2="30.0" stroke="#FFB64A" stroke-width="2"/><line x1="747.3" y1="231.6" x2="821.8" y2="142.8" stroke="#FFB64A" stroke-width="2"/><line x1="872.4" y1="448.4" x2="986.7" y2="428.3" stroke="#FFB64A" stroke-width="2"/><line x1="829.0" y1="695.0" x2="929.4" y2="753.0" stroke="#FFB64A" stroke-width="2"/><line x1="637.2" y1="855.9" x2="676.9" y2="964.9" stroke="#FFB64A" stroke-width="2"/><line x1="386.8" y1="855.9" x2="347.1" y2="964.9" stroke="#FFB64A" stroke-width="2"/><line x1="195.0" y1="695.0" x2="94.6" y2="753.0" stroke="#FFB64A" stroke-width="2"/><line x1="151.6" y1="448.4" x2="37.3" y2="428.3" stroke="#FFB64A" stroke-width="2"/><line x1="276.7" y1="231.6" x2="202.2" y2="142.8" stroke="#FFB64A" stroke-width="2"/>
  <circle cx="559.8" cy="149.1" r="2" fill="#3A424D"/><circle cx="652.1" cy="173.9" r="2" fill="#3A424D"/><circle cx="734.8" cy="221.6" r="2" fill="#3A424D"/><circle cx="802.4" cy="289.2" r="2" fill="#3A424D"/><circle cx="850.1" cy="371.9" r="2" fill="#3A424D"/><circle cx="874.9" cy="464.2" r="2" fill="#3A424D"/><circle cx="874.9" cy="559.8" r="2" fill="#3A424D"/><circle cx="850.1" cy="652.1" r="2" fill="#3A424D"/><circle cx="802.4" cy="734.8" r="2" fill="#3A424D"/><circle cx="734.8" cy="802.4" r="2" fill="#3A424D"/><circle cx="652.1" cy="850.1" r="2" fill="#3A424D"/><circle cx="559.8" cy="874.9" r="2" fill="#3A424D"/><circle cx="464.2" cy="874.9" r="2" fill="#3A424D"/><circle cx="371.9" cy="850.1" r="2" fill="#3A424D"/><circle cx="289.2" cy="802.4" r="2" fill="#3A424D"/><circle cx="221.6" cy="734.8" r="2" fill="#3A424D"/><circle cx="173.9" cy="652.1" r="2" fill="#3A424D"/><circle cx="149.1" cy="559.8" r="2" fill="#3A424D"/><circle cx="149.1" cy="464.2" r="2" fill="#3A424D"/><circle cx="173.9" cy="371.9" r="2" fill="#3A424D"/><circle cx="221.6" cy="289.2" r="2" fill="#3A424D"/><circle cx="289.2" cy="221.6" r="2" fill="#3A424D"/><circle cx="371.9" cy="173.9" r="2" fill="#3A424D"/><circle cx="464.2" cy="149.1" r="2" fill="#3A424D"/>
  <g transform="translate(512.0 88.0) rotate(0) scale(1.05)"><path d="M-6 -16L-6 16" stroke="#3A424D" stroke-width="3" stroke-linecap="square" fill="none"/><path d="M-6 -16L8 -6" stroke="#3A424D" stroke-width="3" stroke-linecap="square" fill="none"/><path d="M-6 -6L8 4" stroke="#3A424D" stroke-width="3" stroke-linecap="square" fill="none"/></g><g transform="translate(621.7 102.4) rotate(15) scale(1.05)"><path d="M-6 -16L-6 16" stroke="#3A424D" stroke-width="3" stroke-linecap="square" fill="none"/><path d="M-6 -16L8 16" stroke="#3A424D" stroke-width="3" stroke-linecap="square" fill="none"/></g><g transform="translate(724.0 144.8) rotate(30) scale(1.05)"><path d="M-6 -16L-6 16" stroke="#3A424D" stroke-width="3" stroke-linecap="square" fill="none"/><path d="M-6 -12L6 -2" stroke="#3A424D" stroke-width="3" stroke-linecap="square" fill="none"/><path d="M6 -2L-6 8" stroke="#3A424D" stroke-width="3" stroke-linecap="square" fill="none"/></g><g transform="translate(811.8 212.2) rotate(45) scale(1.05)"><path d="M-6 -16L-6 16" stroke="#3A424D" stroke-width="3" stroke-linecap="square" fill="none"/><path d="M-6 -16L8 -4" stroke="#3A424D" stroke-width="3" stroke-linecap="square" fill="none"/><path d="M-6 -6L8 6" stroke="#3A424D" stroke-width="3" stroke-linecap="square" fill="none"/></g><g transform="translate(879.2 300.0) rotate(60) scale(1.05)"><path d="M-6 -16L-6 16" stroke="#3A424D" stroke-width="3" stroke-linecap="square" fill="none"/><path d="M-6 -16L6 -10" stroke="#3A424D" stroke-width="3" stroke-linecap="square" fill="none"/><path d="M-6 -2L6 -10" stroke="#3A424D" stroke-width="3" stroke-linecap="square" fill="none"/><path d="M-6 -2L8 16" stroke="#3A424D" stroke-width="3" stroke-linecap="square" fill="none"/></g><g transform="translate(921.6 402.3) rotate(75) scale(1.05)"><path d="M8 -12L-6 0" stroke="#FFB64A" stroke-width="3" stroke-linecap="square" fill="none"/><path d="M-6 0L8 12" stroke="#FFB64A" stroke-width="3" stroke-linecap="square" fill="none"/></g><g transform="translate(936.0 512.0) rotate(90) scale(1.05)"><path d="M-8 -12L8 12" stroke="#3A424D" stroke-width="3" stroke-linecap="square" fill="none"/><path d="M8 -12L-8 12" stroke="#3A424D" stroke-width="3" stroke-linecap="square" fill="none"/></g><g transform="translate(921.6 621.7) rotate(105) scale(1.05)"><path d="M-6 -16L-6 16" stroke="#3A424D" stroke-width="3" stroke-linecap="square" fill="none"/><path d="M6 -16L6 16" stroke="#3A424D" stroke-width="3" stroke-linecap="square" fill="none"/><path d="M-6 0L6 0" stroke="#3A424D" stroke-width="3" stroke-linecap="square" fill="none"/></g><g transform="translate(879.2 724.0) rotate(120) scale(1.05)"><path d="M-2 -16L-2 16" stroke="#3A424D" stroke-width="3" stroke-linecap="square" fill="none"/><path d="M-8 6L6 -6" stroke="#3A424D" stroke-width="3" stroke-linecap="square" fill="none"/></g><g transform="translate(811.8 811.8) rotate(135) scale(1.05)"><path d="M0 -16L0 16" stroke="#3A424D" stroke-width="3" stroke-linecap="square" fill="none"/></g><g transform="translate(724.0 879.2) rotate(150) scale(1.05)"><path d="M-6 -14L4 -6" stroke="#3A424D" stroke-width="3" stroke-linecap="square" fill="none"/><path d="M4 -6L-6 2" stroke="#3A424D" stroke-width="3" stroke-linecap="square" fill="none"/><path d="M6 -2L-4 6" stroke="#3A424D" stroke-width="3" stroke-linecap="square" fill="none"/><path d="M-4 6L6 14" stroke="#3A424D" stroke-width="3" stroke-linecap="square" fill="none"/></g><g transform="translate(621.7 921.6) rotate(165) scale(1.05)"><path d="M4 -16L-4 -4" stroke="#3A424D" stroke-width="3" stroke-linecap="square" fill="none"/><path d="M-4 -4L4 4" stroke="#3A424D" stroke-width="3" stroke-linecap="square" fill="none"/><path d="M4 4L-4 16" stroke="#3A424D" stroke-width="3" stroke-linecap="square" fill="none"/></g><g transform="translate(512.0 936.0) rotate(180) scale(1.05)"><path d="M-6 -16L-6 16" stroke="#3A424D" stroke-width="3" stroke-linecap="square" fill="none"/><path d="M-6 -16L6 -8" stroke="#3A424D" stroke-width="3" stroke-linecap="square" fill="none"/><path d="M6 -8L-6 0" stroke="#3A424D" stroke-width="3" stroke-linecap="square" fill="none"/></g><g transform="translate(402.3 921.6) rotate(195) scale(1.05)"><path d="M0 16L0 -4" stroke="#3A424D" stroke-width="3" stroke-linecap="square" fill="none"/><path d="M0 -4L-8 -14" stroke="#3A424D" stroke-width="3" stroke-linecap="square" fill="none"/><path d="M0 -4L8 -14" stroke="#3A424D" stroke-width="3" stroke-linecap="square" fill="none"/></g><g transform="translate(300.0 879.2) rotate(210) scale(1.05)"><path d="M4 -16L-4 -2" stroke="#3A424D" stroke-width="3" stroke-linecap="square" fill="none"/><path d="M-4 -2L4 2" stroke="#3A424D" stroke-width="3" stroke-linecap="square" fill="none"/><path d="M4 2L-4 16" stroke="#3A424D" stroke-width="3" stroke-linecap="square" fill="none"/></g><g transform="translate(212.2 811.8) rotate(225) scale(1.05)"><path d="M0 -16L0 16" stroke="#3A424D" stroke-width="3" stroke-linecap="square" fill="none"/><path d="M0 -16L-8 -8" stroke="#3A424D" stroke-width="3" stroke-linecap="square" fill="none"/><path d="M0 -16L8 -8" stroke="#3A424D" stroke-width="3" stroke-linecap="square" fill="none"/></g><g transform="translate(144.8 724.0) rotate(240) scale(1.05)"><path d="M-6 -16L-6 16" stroke="#3A424D" stroke-width="3" stroke-linecap="square" fill="none"/><path d="M-6 -16L6 -8" stroke="#3A424D" stroke-width="3" stroke-linecap="square" fill="none"/><path d="M6 -8L-6 0" stroke="#3A424D" stroke-width="3" stroke-linecap="square" fill="none"/><path d="M-6 0L6 8" stroke="#3A424D" stroke-width="3" stroke-linecap="square" fill="none"/><path d="M6 8L-6 16" stroke="#3A424D" stroke-width="3" stroke-linecap="square" fill="none"/></g><g transform="translate(102.4 621.7) rotate(255) scale(1.05)"><path d="M-6 16L-6 -14" stroke="#3A424D" stroke-width="3" stroke-linecap="square" fill="none"/><path d="M-6 -14L0 -4" stroke="#3A424D" stroke-width="3" stroke-linecap="square" fill="none"/><path d="M0 -4L6 -14" stroke="#3A424D" stroke-width="3" stroke-linecap="square" fill="none"/><path d="M6 -14L6 16" stroke="#3A424D" stroke-width="3" stroke-linecap="square" fill="none"/></g><g transform="translate(88.0 512.0) rotate(270) scale(1.05)"><path d="M-6 16L-6 -14" stroke="#3A424D" stroke-width="3" stroke-linecap="square" fill="none"/><path d="M-6 -14L0 -4" stroke="#3A424D" stroke-width="3" stroke-linecap="square" fill="none"/><path d="M0 -4L6 -14" stroke="#3A424D" stroke-width="3" stroke-linecap="square" fill="none"/><path d="M6 -14L6 16" stroke="#3A424D" stroke-width="3" stroke-linecap="square" fill="none"/><path d="M-6 -14L6 0" stroke="#3A424D" stroke-width="3" stroke-linecap="square" fill="none"/><path d="M6 -14L-6 0" stroke="#3A424D" stroke-width="3" stroke-linecap="square" fill="none"/></g><g transform="translate(102.4 402.3) rotate(285) scale(1.05)"><path d="M-4 -16L-4 16" stroke="#3A424D" stroke-width="3" stroke-linecap="square" fill="none"/><path d="M-4 -16L6 -6" stroke="#3A424D" stroke-width="3" stroke-linecap="square" fill="none"/></g><g transform="translate(144.8 300.0) rotate(300) scale(1.05)"><path d="M0 -14L8 0" stroke="#3A424D" stroke-width="3" stroke-linecap="square" fill="none"/><path d="M8 0L0 14" stroke="#3A424D" stroke-width="3" stroke-linecap="square" fill="none"/><path d="M0 14L-8 0" stroke="#3A424D" stroke-width="3" stroke-linecap="square" fill="none"/><path d="M-8 0L0 -14" stroke="#3A424D" stroke-width="3" stroke-linecap="square" fill="none"/></g><g transform="translate(212.2 212.2) rotate(315) scale(1.05)"><path d="M-6 -14L6 14" stroke="#3A424D" stroke-width="3" stroke-linecap="square" fill="none"/><path d="M-6 14L6 -14" stroke="#3A424D" stroke-width="3" stroke-linecap="square" fill="none"/><path d="M-6 -14L-6 14" stroke="#3A424D" stroke-width="3" stroke-linecap="square" fill="none"/><path d="M6 -14L6 14" stroke="#3A424D" stroke-width="3" stroke-linecap="square" fill="none"/></g><g transform="translate(300.0 144.8) rotate(330) scale(1.05)"><path d="M0 -14L6 -6" stroke="#3A424D" stroke-width="3" stroke-linecap="square" fill="none"/><path d="M6 -6L0 2" stroke="#3A424D" stroke-width="3" stroke-linecap="square" fill="none"/><path d="M0 2L-6 -6" stroke="#3A424D" stroke-width="3" stroke-linecap="square" fill="none"/><path d="M-6 -6L0 -14" stroke="#3A424D" stroke-width="3" stroke-linecap="square" fill="none"/><path d="M0 2L8 14" stroke="#3A424D" stroke-width="3" stroke-linecap="square" fill="none"/><path d="M0 2L-8 14" stroke="#3A424D" stroke-width="3" stroke-linecap="square" fill="none"/></g><g transform="translate(402.3 102.4) rotate(345) scale(1.05)"><path d="M4 -16L-4 -2" stroke="#3A424D" stroke-width="3" stroke-linecap="square" fill="none"/><path d="M-4 -2L4 2" stroke="#3A424D" stroke-width="3" stroke-linecap="square" fill="none"/><path d="M4 2L-4 16" stroke="#3A424D" stroke-width="3" stroke-linecap="square" fill="none"/></g>
</svg>
